<svg width="18" height="18" viewBox="0 0 18 18" fill="none" xmlns="http://www.w3.org/2000/svg">
<path d="M0.875 6.5C0.53125 6.5 0.25 6.21875 0.25 5.875V0.875C0.25 0.53125 0.53125 0.25 0.875 0.25C1.21875 0.25 1.5 0.53125 1.5 0.875V4.49219C3.03125 1.94922 5.81641 0.25 9 0.25C13.832 0.25 17.75 4.16797 17.75 9C17.75 13.832 13.832 17.75 9 17.75C5.87891 17.75 3.14063 16.1172 1.58984 13.6562C1.33594 13.25 1.64453 12.75 2.125 12.75C2.35938 12.75 2.57031 12.875 2.69922 13.0703C4.03516 15.1328 6.35938 16.5 9 16.5C13.1406 16.5 16.5 13.1406 16.5 9C16.5 4.85938 13.1406 1.5 9 1.5C6.22266 1.5 3.80078 3.00781 2.50391 5.25H5.875C6.21875 5.25 6.5 5.53125 6.5 5.875C6.5 6.21875 6.21875 6.5 5.875 6.5H0.875Z" fill="#214D23"/>
</svg>
