<svg width="26" height="22" viewBox="0 0 26 22" fill="none" xmlns="http://www.w3.org/2000/svg">
<path d="M2.6 0H3.25H5.85H6.37L6.48375 0.537109L6.6625 1.375H24.6391H26L25.5938 2.75L22.75 12.375H9.02687L9.61594 15.125H22.75H23.4V16.5H22.75H9.1H8.58L8.46625 15.9629L5.33 1.375H3.25H2.6V0ZM21.7953 11L24.2328 2.75H6.95906L8.73438 11H21.7953ZM11.05 19.5938C11.05 19.3202 10.9473 19.0579 10.7644 18.8645C10.5816 18.6712 10.3336 18.5625 10.075 18.5625C9.81641 18.5625 9.56842 18.6712 9.38557 18.8645C9.20272 19.0579 9.1 19.3202 9.1 19.5938C9.1 19.8673 9.20272 20.1296 9.38557 20.323C9.56842 20.5163 9.81641 20.625 10.075 20.625C10.3336 20.625 10.5816 20.5163 10.7644 20.323C10.9473 20.1296 11.05 19.8673 11.05 19.5938ZM7.8 19.5938C7.8 19.2778 7.85884 18.9649 7.97317 18.6729C8.0875 18.381 8.25508 18.1157 8.46633 17.8923C8.67759 17.6688 8.92838 17.4916 9.2044 17.3707C9.48041 17.2497 9.77624 17.1875 10.075 17.1875C10.3738 17.1875 10.6696 17.2497 10.9456 17.3707C11.2216 17.4916 11.4724 17.6688 11.6837 17.8923C11.8949 18.1157 12.0625 18.381 12.1768 18.6729C12.2912 18.9649 12.35 19.2778 12.35 19.5938C12.35 19.9097 12.2912 20.2226 12.1768 20.5146C12.0625 20.8065 11.8949 21.0718 11.6837 21.2952C11.4724 21.5187 11.2216 21.6959 10.9456 21.8168C10.6696 21.9378 10.3738 22 10.075 22C9.77624 22 9.48041 21.9378 9.2044 21.8168C8.92838 21.6959 8.67759 21.5187 8.46633 21.2952C8.25508 21.0718 8.0875 20.8065 7.97317 20.5146C7.85884 20.2226 7.8 19.9097 7.8 19.5938ZM21.125 20.625C21.3836 20.625 21.6316 20.5163 21.8144 20.323C21.9973 20.1296 22.1 19.8673 22.1 19.5938C22.1 19.3202 21.9973 19.0579 21.8144 18.8645C21.6316 18.6712 21.3836 18.5625 21.125 18.5625C20.8664 18.5625 20.6184 18.6712 20.4356 18.8645C20.2527 19.0579 20.15 19.3202 20.15 19.5938C20.15 19.8673 20.2527 20.1296 20.4356 20.323C20.6184 20.5163 20.8664 20.625 21.125 20.625ZM21.125 17.1875C21.7284 17.1875 22.307 17.441 22.7337 17.8923C23.1603 18.3435 23.4 18.9556 23.4 19.5938C23.4 20.2319 23.1603 20.844 22.7337 21.2952C22.307 21.7465 21.7284 22 21.125 22C20.5216 22 19.943 21.7465 19.5163 21.2952C19.0897 20.844 18.85 20.2319 18.85 19.5938C18.85 18.9556 19.0897 18.3435 19.5163 17.8923C19.943 17.441 20.5216 17.1875 21.125 17.1875ZM0.65 5.5H4.55H5.2V6.875H4.55H0.65H0V5.5H0.65ZM0.65 8.25H5.2H5.85V9.625H5.2H0.65H0V8.25H0.65ZM0.65 11H5.85H6.5V12.375H5.85H0.65H0V11H0.65Z" fill="black"/>
</svg>
