<svg width="16" height="22" viewBox="0 0 16 22" fill="none" xmlns="http://www.w3.org/2000/svg">
<g clip-path="url(#clip0_364_3205)">
<path d="M15.6085 5.09608C16.1294 4.55897 16.1294 3.68671 15.6085 3.1496C15.0877 2.61249 14.2419 2.61249 13.721 3.1496L0.387695 16.8996C-0.133138 17.4367 -0.133138 18.309 0.387695 18.8461C0.908529 19.3832 1.75436 19.3832 2.2752 18.8461L15.6085 5.09608ZM5.33353 5.49999C5.33353 4.77064 5.05258 4.07117 4.55248 3.55544C4.05238 3.03972 3.37411 2.74999 2.66686 2.74999C1.95962 2.74999 1.28134 3.03972 0.781244 3.55544C0.281147 4.07117 0.000195304 4.77064 0.000195304 5.49999C0.000195304 6.22933 0.281147 6.92881 0.781244 7.44453C1.28134 7.96026 1.95962 8.24999 2.66686 8.24999C3.37411 8.24999 4.05238 7.96026 4.55248 7.44453C5.05258 6.92881 5.33353 6.22933 5.33353 5.49999ZM16.0002 16.5C16.0002 15.7706 15.7192 15.0712 15.2191 14.5554C14.719 14.0397 14.0408 13.75 13.3335 13.75C12.6263 13.75 11.948 14.0397 11.4479 14.5554C10.9478 15.0712 10.6669 15.7706 10.6669 16.5C10.6669 17.2293 10.9478 17.9288 11.4479 18.4445C11.948 18.9603 12.6263 19.25 13.3335 19.25C14.0408 19.25 14.719 18.9603 15.2191 18.4445C15.7192 17.9288 16.0002 17.2293 16.0002 16.5Z" fill="#214D23"/>
</g>
<defs>
<clipPath id="clip0_364_3205">
<rect width="16" height="22" fill="white"/>
</clipPath>
</defs>
</svg>
