<svg width="108" height="108" viewBox="0 0 108 108" fill="none" xmlns="http://www.w3.org/2000/svg">
<path d="M40.5 45L57.7581 57.9436C58.1766 58.2574 58.7662 58.1957 59.1107 57.8021L90 22.5" stroke="#00D32F" stroke-width="2" stroke-linecap="round"/>
<path d="M94.5 54C94.5 62.4622 91.8493 70.7119 86.9203 77.5903C81.9912 84.4688 75.0314 89.6306 67.0183 92.3507C59.0052 95.0708 50.3413 95.2125 42.2435 92.7561C34.1456 90.2996 27.0207 85.3684 21.8692 78.6548C16.7177 71.9413 13.7986 63.7828 13.5217 55.3251C13.2448 46.8674 15.6241 38.5355 20.3255 31.4994C25.0268 24.4633 31.814 19.0766 39.7339 16.0958C47.6537 13.115 56.3083 12.6898 64.4822 14.88" stroke="#00D32F" stroke-width="2" stroke-linecap="round"/>
</svg>
