<svg version="1.1" id="Layer_1" xmlns="http://www.w3.org/2000/svg" xmlns:xlink="http://www.w3.org/1999/xlink" x="0px" y="0px"
	 width="100%" viewBox="0 0 512 512" enable-background="new 0 0 512 512" xml:space="preserve">
<path fill="#D7443E" opacity="1.000000" stroke="none" 
	d="
M0.999999,206.000000 
	C1.000000,192.645767 1.000000,179.291550 1.369564,165.336426 
	C2.151679,164.053024 2.737268,163.420410 2.950742,162.680450 
	C6.002974,152.100494 7.975897,141.072662 12.218311,130.999008 
	C23.474361,104.271355 41.957359,83.417587 66.541000,67.908783 
	C86.736542,55.168243 108.919945,48.608250 132.493713,47.140617 
	C152.292450,45.908012 171.672791,48.710934 190.381149,55.921616 
	C213.570755,64.859474 233.066772,78.688164 248.606323,98.087105 
	C251.323547,101.479164 254.056580,104.858536 256.905670,108.396957 
	C257.907471,107.478310 258.656311,107.025192 259.084320,106.364281 
	C266.151672,95.451080 275.271271,86.457123 285.246185,78.254776 
	C296.799591,68.754433 309.491760,61.122204 323.556641,56.057796 
	C343.976532,48.705112 364.882904,45.332180 386.751343,47.836685 
	C400.963989,49.464397 414.718903,52.362915 427.780640,58.027557 
	C447.884155,66.746086 465.373260,79.042053 479.621826,95.986832 
	C493.718719,112.751305 503.897949,131.367447 509.010223,152.684357 
	C510.467102,158.759140 511.676910,164.893143 513.000000,171.000000 
	C513.000000,181.020889 513.000000,191.041794 512.628906,201.710236 
	C511.680359,206.237869 511.431824,210.201813 510.467926,213.983398 
	C506.526428,229.446609 500.921692,244.207169 493.410187,258.403503 
	C480.830719,282.178040 464.645844,303.277374 446.472900,322.789093 
	C426.633606,344.089966 405.599426,364.276520 382.416382,381.994629 
	C362.454712,397.250732 342.516418,412.593811 321.838684,426.840210 
	C302.822418,439.941925 282.792908,451.568146 263.304962,463.993713 
	C258.797150,466.867859 254.840073,466.716492 250.460556,463.841888 
	C227.187546,448.566010 203.725784,433.575073 180.558304,418.141785 
	C152.036057,399.141357 125.561844,377.445435 100.225533,354.457642 
	C87.041069,342.495239 75.094017,329.152069 62.793221,316.237152 
	C49.323853,302.095337 37.671165,286.496277 27.493694,269.858124 
	C18.222887,254.702225 10.271091,238.891037 5.774792,221.538040 
	C4.417081,216.298080 2.604319,211.176056 0.999999,206.000000 
z"/>
<path fill="#FFFFFF" opacity="1.000000" stroke="none" 
	d="
M0.999999,206.468658 
	C2.604319,211.176056 4.417081,216.298080 5.774792,221.538040 
	C10.271091,238.891037 18.222887,254.702225 27.493694,269.858124 
	C37.671165,286.496277 49.323853,302.095337 62.793221,316.237152 
	C75.094017,329.152069 87.041069,342.495239 100.225533,354.457642 
	C125.561844,377.445435 152.036057,399.141357 180.558304,418.141785 
	C203.725784,433.575073 227.187546,448.566010 250.460556,463.841888 
	C254.840073,466.716492 258.797150,466.867859 263.304962,463.993713 
	C282.792908,451.568146 302.822418,439.941925 321.838684,426.840210 
	C342.516418,412.593811 362.454712,397.250732 382.416382,381.994629 
	C405.599426,364.276520 426.633606,344.089966 446.472900,322.789093 
	C464.645844,303.277374 480.830719,282.178040 493.410187,258.403503 
	C500.921692,244.207169 506.526428,229.446609 510.467926,213.983398 
	C511.431824,210.201813 511.680359,206.237869 512.628906,202.178894 
	C513.000000,305.626495 513.000000,409.253021 513.000000,512.939758 
	C342.439606,512.939758 171.879181,512.939758 1.000000,512.939758 
	C1.000000,410.979340 1.000000,308.958313 0.999999,206.468658 
z"/>
<path fill="#FFFFFF" opacity="1.000000" stroke="none" 
	d="
M513.000000,170.531342 
	C511.676910,164.893143 510.467102,158.759140 509.010223,152.684357 
	C503.897949,131.367447 493.718719,112.751305 479.621826,95.986832 
	C465.373260,79.042053 447.884155,66.746086 427.780640,58.027557 
	C414.718903,52.362915 400.963989,49.464397 386.751343,47.836685 
	C364.882904,45.332180 343.976532,48.705112 323.556641,56.057796 
	C309.491760,61.122204 296.799591,68.754433 285.246185,78.254776 
	C275.271271,86.457123 266.151672,95.451080 259.084320,106.364281 
	C258.656311,107.025192 257.907471,107.478310 256.905670,108.396957 
	C254.056580,104.858536 251.323547,101.479164 248.606323,98.087105 
	C233.066772,78.688164 213.570755,64.859474 190.381149,55.921616 
	C171.672791,48.710934 152.292450,45.908012 132.493713,47.140617 
	C108.919945,48.608250 86.736542,55.168243 66.541000,67.908783 
	C41.957359,83.417587 23.474361,104.271355 12.218311,130.999008 
	C7.975897,141.072662 6.002974,152.100494 2.950742,162.680450 
	C2.737268,163.420410 2.151679,164.053024 1.369564,164.867767 
	C1.000000,110.361595 1.000000,55.723194 1.000000,1.042395 
	C171.550156,1.042395 342.100342,1.042395 513.000000,1.042395 
	C513.000000,57.353745 513.000000,113.708214 513.000000,170.531342 
z"/>
</svg>