<svg width="22" height="22" viewBox="0 0 22 22" fill="none" xmlns="http://www.w3.org/2000/svg">
<path d="M11 6.07148L10.0289 5.10039L8.98477 4.05625C8.15117 3.21836 7.0168 2.75 5.83516 2.75C3.37305 2.75 1.375 4.74805 1.375 7.21016C1.375 8.3918 1.84336 9.52617 2.68125 10.3641L3.72109 11.4039L11 18.6828L18.2789 11.4039L19.3188 10.3641C20.1566 9.52617 20.625 8.3918 20.625 7.21016C20.625 4.74805 18.627 2.75 16.1648 2.75C14.9832 2.75 13.8488 3.21836 13.0109 4.05625L11.9711 5.09609L11 6.07148ZM11.9711 19.6539L11 20.625L10.0289 19.6539L2.75 12.375L1.71016 11.3352C0.614453 10.2395 0 8.75703 0 7.21016C0 3.9875 2.6125 1.375 5.83516 1.375C7.38203 1.375 8.86445 1.98945 9.96016 3.08516L10.0289 3.15391L11 4.125L11.9711 3.15391L12.0398 3.08516C13.1355 1.98945 14.618 1.375 16.1648 1.375C19.3875 1.375 22 3.9875 22 7.21016C22 8.75703 21.3855 10.2395 20.2898 11.3352L19.25 12.375L11.9711 19.6539Z" fill="black"/>
</svg>
