<svg width="20" height="20" viewBox="0 0 20 20" fill="none" xmlns="http://www.w3.org/2000/svg">
<g clip-path="url(#clip0_761_4372)">
<path d="M11.25 0V1.25V2.60547C14.3906 3.12891 16.8711 5.60938 17.3945 8.75H18.75H20V11.25H18.75H17.3945C16.8711 14.3906 14.3906 16.8711 11.25 17.3945V18.75V20H8.75V18.75V17.3945C5.60938 16.8711 3.12891 14.3906 2.60547 11.25H1.25H0V8.75H1.25H2.60547C3.12891 5.60938 5.60938 3.12891 8.75 2.60547V1.25V0H11.25ZM5 10C5 11.3261 5.52678 12.5979 6.46447 13.5355C7.40215 14.4732 8.67392 15 10 15C11.3261 15 12.5979 14.4732 13.5355 13.5355C14.4732 12.5979 15 11.3261 15 10C15 8.67392 14.4732 7.40215 13.5355 6.46447C12.5979 5.52678 11.3261 5 10 5C8.67392 5 7.40215 5.52678 6.46447 6.46447C5.52678 7.40215 5 8.67392 5 10ZM10 6.875C10.8288 6.875 11.6237 7.20424 12.2097 7.79029C12.7958 8.37634 13.125 9.1712 13.125 10C13.125 10.8288 12.7958 11.6237 12.2097 12.2097C11.6237 12.7958 10.8288 13.125 10 13.125C9.1712 13.125 8.37634 12.7958 7.79029 12.2097C7.20424 11.6237 6.875 10.8288 6.875 10C6.875 9.1712 7.20424 8.37634 7.79029 7.79029C8.37634 7.20424 9.1712 6.875 10 6.875Z" fill="#CBCBCB"/>
</g>
<defs>
<clipPath id="clip0_761_4372">
<rect width="20" height="20" fill="white"/>
</clipPath>
</defs>
</svg>
