<svg width="20" height="26" viewBox="0 0 20 26" fill="none" xmlns="http://www.w3.org/2000/svg">
<g clip-path="url(#clip0_365_3229)">
<path opacity="0.4" d="M11.2344 25.35C13.9062 22.0898 20 14.1883 20 9.75C20 4.36719 15.5208 0 10 0C4.47917 0 0 4.36719 0 9.75C0 14.1883 6.09375 22.0898 8.76562 25.35C9.40625 26.127 10.5938 26.127 11.2344 25.35ZM10 5.6875C11.1051 5.6875 12.1649 6.11551 12.9463 6.87738C13.7277 7.63925 14.1667 8.67256 14.1667 9.75C14.1667 10.8274 13.7277 11.8608 12.9463 12.6226C12.1649 13.3845 11.1051 13.8125 10 13.8125C8.89493 13.8125 7.83512 13.3845 7.05372 12.6226C6.27232 11.8608 5.83333 10.8274 5.83333 9.75C5.83333 8.67256 6.27232 7.63925 7.05372 6.87738C7.83512 6.11551 8.89493 5.6875 10 5.6875Z" fill="#214D23"/>
<path d="M10 7.3125C9.33696 7.3125 8.70107 7.56931 8.23223 8.02643C7.76339 8.48355 7.5 9.10353 7.5 9.75C7.5 10.3965 7.76339 11.0165 8.23223 11.4736C8.70107 11.9307 9.33696 12.1875 10 12.1875C10.663 12.1875 11.2989 11.9307 11.7678 11.4736C12.2366 11.0165 12.5 10.3965 12.5 9.75C12.5 9.10353 12.2366 8.48355 11.7678 8.02643C11.2989 7.56931 10.663 7.3125 10 7.3125Z" fill="#214D23"/>
</g>
<defs>
<clipPath id="clip0_365_3229">
<rect width="20" height="26" fill="white"/>
</clipPath>
</defs>
</svg>
