<svg width="20" height="22" viewBox="0 0 20 22" fill="none" xmlns="http://www.w3.org/2000/svg">
<g clip-path="url(#clip0_550_96)">
<path d="M14.2857 5.5C14.2857 4.9583 14.1749 4.4219 13.9595 3.92143C13.7441 3.42096 13.4284 2.96623 13.0305 2.58318C12.6325 2.20014 12.16 1.8963 11.6401 1.689C11.1201 1.4817 10.5628 1.375 10 1.375C9.43719 1.375 8.8799 1.4817 8.35993 1.689C7.83996 1.8963 7.36751 2.20014 6.96954 2.58318C6.57158 2.96623 6.25589 3.42096 6.04052 3.92143C5.82514 4.4219 5.71429 4.9583 5.71429 5.5C5.71429 6.0417 5.82514 6.5781 6.04052 7.07857C6.25589 7.57904 6.57158 8.03377 6.96954 8.41682C7.36751 8.79986 7.83996 9.1037 8.35993 9.311C8.8799 9.5183 9.43719 9.625 10 9.625C10.5628 9.625 11.1201 9.5183 11.6401 9.311C12.16 9.1037 12.6325 8.79986 13.0305 8.41682C13.4284 8.03377 13.7441 7.57904 13.9595 7.07857C14.1749 6.5781 14.2857 6.0417 14.2857 5.5ZM4.28571 5.5C4.28571 4.04131 4.88775 2.64236 5.95939 1.61091C7.03103 0.579463 8.48448 0 10 0C11.5155 0 12.969 0.579463 14.0406 1.61091C15.1122 2.64236 15.7143 4.04131 15.7143 5.5C15.7143 6.95869 15.1122 8.35764 14.0406 9.38909C12.969 10.4205 11.5155 11 10 11C8.48448 11 7.03103 10.4205 5.95939 9.38909C4.88775 8.35764 4.28571 6.95869 4.28571 5.5ZM1.42857 20.625H18.5714C18.5179 17.2004 15.6161 14.4375 12.0402 14.4375H7.95982C4.38839 14.4375 1.48661 17.2004 1.42857 20.625ZM0 20.7238C0 16.4914 3.5625 13.0625 7.95982 13.0625H12.0402C16.4375 13.0625 20 16.4914 20 20.7238C20 21.4285 19.4062 22 18.6741 22H1.32589C0.59375 22 0 21.4285 0 20.7238Z" fill="black"/>
</g>
<defs>
<clipPath id="clip0_550_96">
<rect width="20" height="22" fill="white"/>
</clipPath>
</defs>
</svg>
