<svg width="46" height="62" viewBox="0 0 46 62" fill="none" xmlns="http://www.w3.org/2000/svg">
<g clip-path="url(#clip0_761_4368)">
<path d="M25.8391 60.45C31.9844 52.6758 46 33.8336 46 23.25C46 10.4141 35.6979 0 23 0C10.3021 0 0 10.4141 0 23.25C0 33.8336 14.0156 52.6758 20.1609 60.45C21.6344 62.3027 24.3656 62.3027 25.8391 60.45ZM23 15.5C25.0333 15.5 26.9834 16.3165 28.4212 17.7699C29.8589 19.2233 30.6667 21.1946 30.6667 23.25C30.6667 25.3054 29.8589 27.2767 28.4212 28.7301C26.9834 30.1835 25.0333 31 23 31C20.9667 31 19.0166 30.1835 17.5788 28.7301C16.1411 27.2767 15.3333 25.3054 15.3333 23.25C15.3333 21.1946 16.1411 19.2233 17.5788 17.7699C19.0166 16.3165 20.9667 15.5 23 15.5Z" fill="url(#paint0_linear_761_4368)" fill-opacity="0.6"/>
</g>
<defs>
<linearGradient id="paint0_linear_761_4368" x1="23" y1="0" x2="23" y2="61.8396" gradientUnits="userSpaceOnUse">
<stop stop-color="#214D23"/>
<stop offset="1" stop-color="#B5E7A3"/>
</linearGradient>
<clipPath id="clip0_761_4368">
<rect width="46" height="62" fill="white"/>
</clipPath>
</defs>
</svg>
