<svg width="20" height="20" viewBox="0 0 20 20" fill="none" xmlns="http://www.w3.org/2000/svg">
<path d="M2.60547 8.75C3.19922 5.20312 6.28516 2.5 10 2.5C12.7773 2.5 15.1992 4.00781 16.4961 6.25H14.375H13.75V7.5H14.375H17.0742H18.125H18.3867H18.75V6.875V3.125V2.5H17.5V3.125V5.49219C15.9687 2.94922 13.1836 1.25 10 1.25C5.59375 1.25 1.94531 4.50781 1.33984 8.75H2.60547ZM10 17.5C7.22266 17.5 4.80078 15.9922 3.50391 13.75H5.63281H6.25781V12.5H5.63281H2.92578H1.88281H1.61328H1.25781V13.125V16.875V17.5H2.50781V16.875V14.5234C4.03906 17.0547 6.82422 18.75 10 18.75C14.4062 18.75 18.0547 15.4922 18.6602 11.25H17.3984C16.8008 14.7969 13.7148 17.5 10 17.5Z" fill="#214D23"/>
</svg>
