<svg width="14" height="16" viewBox="0 0 14 16" fill="none" xmlns="http://www.w3.org/2000/svg">
<path d="M5.55312 1H8.44375C8.61563 1 8.775 1.0875 8.86875 1.23438L9.34688 2H4.65312L5.13125 1.23438C5.22187 1.0875 5.38438 1 5.55625 1H5.55312ZM10.5281 2L9.71875 0.70625C9.44375 0.265625 8.9625 0 8.44687 0H5.55312C5.0375 0 4.55625 0.265625 4.28125 0.70625L3.47187 2H2.00312H1H0.5C0.225 2 0 2.225 0 2.5C0 2.775 0.225 3 0.5 3H1.07187L1.86875 14.1438C1.94062 15.1906 2.8125 16 3.8625 16H10.1375C11.1875 16 12.0563 15.1906 12.1313 14.1438L12.9281 3H13.5C13.775 3 14 2.775 14 2.5C14 2.225 13.775 2 13.5 2H13H11.9969H10.5281ZM11.9281 3L11.1344 14.0719C11.0969 14.5938 10.6625 15 10.1375 15H3.8625C3.3375 15 2.90312 14.5938 2.86562 14.0719L2.075 3H11.925H11.9281Z" fill="#DE1542"/>
</svg>
